<?xml version="1.0" encoding="UTF-8" standalone="no"?>
<!DOCTYPE svg PUBLIC "-//W3C//DTD SVG 1.1//EN"
 "http://www.w3.org/Graphics/SVG/1.1/DTD/svg11.dtd">
<!-- Generated by graphviz version 14.0.5 (20251129.0259)
 -->
<!-- Title: generate_docs.generate_documentation Pages: 1 -->
<svg width="268pt" height="52pt"
 viewBox="0.00 0.00 268.00 52.00" xmlns="http://www.w3.org/2000/svg" xmlns:xlink="http://www.w3.org/1999/xlink">
<g id="graph0" class="graph" transform="scale(1 1) rotate(0) translate(4 48)">
<title>generate_docs.generate_documentation</title>
<!-- Node1 -->
<g id="Node000001" class="node">
<title>Node1</title>
<g id="a_Node000001"><a xlink:title=" ">
<polygon fill="#999999" stroke="#666666" points="260,-32 139.75,-32 139.75,0 260,0 260,-32"/>
<text xml:space="preserve" text-anchor="start" x="147.75" y="-18.5" font-family="Helvetica,sans-Serif" font-size="10.00">generate_docs.generate</text>
<text xml:space="preserve" text-anchor="middle" x="199.88" y="-6.5" font-family="Helvetica,sans-Serif" font-size="10.00">_documentation</text>
</a>
</g>
</g>
<!-- Node2 -->
<g id="Node000002" class="node">
<title>Node2</title>
<g id="a_Node000002"><a xlink:href="../../d5/d50/namespacegenerate__docs.html#a7fe0214d2eee488ef3cd66bd71bbab7c" target="_top" xlink:title=" ">
<polygon fill="white" stroke="#666666" points="103.75,-26 0,-26 0,-6 103.75,-6 103.75,-26"/>
<text xml:space="preserve" text-anchor="middle" x="51.88" y="-12.5" font-family="Helvetica,sans-Serif" font-size="10.00">generate_docs.main</text>
</a>
</g>
</g>
<!-- Node1&#45;&gt;Node2 -->
<g id="edge1_Node000001_Node000002" class="edge">
<title>Node1&#45;&gt;Node2</title>
<g id="a_edge1_Node000001_Node000002"><a xlink:title=" ">
<path fill="none" stroke="#63b8ff" d="M128.16,-16C120.09,-16 111.99,-16 104.25,-16"/>
<polygon fill="#63b8ff" stroke="#63b8ff" points="127.98,-19.5 137.98,-16 127.98,-12.5 127.98,-19.5"/>
</a>
</g>
</g>
<!-- Node2&#45;&gt;Node2 -->
<g id="edge2_Node000002_Node000002" class="edge">
<title>Node2&#45;&gt;Node2</title>
<g id="a_edge2_Node000002_Node000002"><a xlink:title=" ">
<path fill="none" stroke="#63b8ff" d="M78.03,-37.44C74.66,-41.3 65.94,-44 51.88,-44 26.15,-44 18.31,-34.98 28.36,-26.34"/>
<polygon fill="#63b8ff" stroke="#63b8ff" points="81.46,-36.73 75.74,-27.81 74.65,-38.35 81.46,-36.73"/>
</a>
</g>
</g>
</g>
</svg>
