<?xml version="1.0" encoding="UTF-8" standalone="no"?>
<!DOCTYPE svg PUBLIC "-//W3C//DTD SVG 1.1//EN"
 "http://www.w3.org/Graphics/SVG/1.1/DTD/svg11.dtd">
<!-- Generated by graphviz version 14.0.5 (20251129.0259)
 -->
<!-- Title: generate_docs.main Pages: 1 -->
<svg width="268pt" height="190pt"
 viewBox="0.00 0.00 268.00 190.00" xmlns="http://www.w3.org/2000/svg" xmlns:xlink="http://www.w3.org/1999/xlink">
<g id="graph0" class="graph" transform="scale(1 1) rotate(0) translate(4 186)">
<title>generate_docs.main</title>
<!-- Node1 -->
<g id="Node000001" class="node">
<title>Node1</title>
<g id="a_Node000001"><a xlink:title=" ">
<polygon fill="#999999" stroke="#666666" points="103.75,-101 0,-101 0,-81 103.75,-81 103.75,-101"/>
<text xml:space="preserve" text-anchor="middle" x="51.88" y="-87.5" font-family="Helvetica,sans-Serif" font-size="10.00">generate_docs.main</text>
</a>
</g>
</g>
<!-- Node1&#45;&gt;Node1 -->
<g id="edge4_Node000001_Node000001" class="edge">
<title>Node1&#45;&gt;Node1</title>
<g id="a_edge4_Node000001_Node000001"><a xlink:title=" ">
<path fill="none" stroke="#63b8ff" d="M28.36,-101.34C18.31,-109.98 26.15,-119 51.88,-119 65.94,-119 74.66,-116.3 78.03,-112.44"/>
<polygon fill="#63b8ff" stroke="#63b8ff" points="81.46,-111.73 75.74,-102.81 74.65,-113.35 81.46,-111.73"/>
</a>
</g>
</g>
<!-- Node2 -->
<g id="Node000002" class="node">
<title>Node2</title>
<g id="a_Node000002"><a xlink:href="../../d5/d50/namespacegenerate__docs.html#ac2b21a9ddee9554110ee29a921003c40" target="_top" xlink:title=" ">
<polygon fill="white" stroke="#666666" points="254.38,-182 145.38,-182 145.38,-150 254.38,-150 254.38,-182"/>
<text xml:space="preserve" text-anchor="start" x="153.38" y="-168.5" font-family="Helvetica,sans-Serif" font-size="10.00">generate_docs.check</text>
<text xml:space="preserve" text-anchor="middle" x="199.88" y="-156.5" font-family="Helvetica,sans-Serif" font-size="10.00">_doxygen_installed</text>
</a>
</g>
</g>
<!-- Node1&#45;&gt;Node2 -->
<g id="edge1_Node000001_Node000002" class="edge">
<title>Node1&#45;&gt;Node2</title>
<g id="a_edge1_Node000001_Node000002"><a xlink:title=" ">
<path fill="none" stroke="#63b8ff" d="M69.52,-101.4C86.77,-111.97 114.66,-128.53 139.75,-141 142.42,-142.33 145.17,-143.65 147.97,-144.95"/>
<polygon fill="#63b8ff" stroke="#63b8ff" points="146.25,-148.02 156.81,-148.95 149.14,-141.64 146.25,-148.02"/>
</a>
</g>
</g>
<!-- Node3 -->
<g id="Node000003" class="node">
<title>Node3</title>
<g id="a_Node000003"><a xlink:href="../../d5/d50/namespacegenerate__docs.html#a67aa4f5cd1d7798bd70036b4e6471b53" target="_top" xlink:title=" ">
<polygon fill="white" stroke="#666666" points="254.38,-132 145.38,-132 145.38,-100 254.38,-100 254.38,-132"/>
<text xml:space="preserve" text-anchor="start" x="153.38" y="-118.5" font-family="Helvetica,sans-Serif" font-size="10.00">generate_docs.check</text>
<text xml:space="preserve" text-anchor="middle" x="199.88" y="-106.5" font-family="Helvetica,sans-Serif" font-size="10.00">_graphviz_installed</text>
</a>
</g>
</g>
<!-- Node1&#45;&gt;Node3 -->
<g id="edge2_Node000001_Node000003" class="edge">
<title>Node1&#45;&gt;Node3</title>
<g id="a_edge2_Node000001_Node000003"><a xlink:title=" ">
<path fill="none" stroke="#63b8ff" d="M103.94,-99.74C113.62,-101.4 123.86,-103.16 133.9,-104.87"/>
<polygon fill="#63b8ff" stroke="#63b8ff" points="133.17,-108.3 143.62,-106.54 134.35,-101.4 133.17,-108.3"/>
</a>
</g>
</g>
<!-- Node4 -->
<g id="Node000004" class="node">
<title>Node4</title>
<g id="a_Node000004"><a xlink:href="../../d5/d50/namespacegenerate__docs.html#a39db8bb96d463bb0ac9baefca4aceda1" target="_top" xlink:title=" ">
<polygon fill="white" stroke="#666666" points="260,-82 139.75,-82 139.75,-50 260,-50 260,-82"/>
<text xml:space="preserve" text-anchor="start" x="147.75" y="-68.5" font-family="Helvetica,sans-Serif" font-size="10.00">generate_docs.generate</text>
<text xml:space="preserve" text-anchor="middle" x="199.88" y="-56.5" font-family="Helvetica,sans-Serif" font-size="10.00">_documentation</text>
</a>
</g>
</g>
<!-- Node1&#45;&gt;Node4 -->
<g id="edge3_Node000001_Node000004" class="edge">
<title>Node1&#45;&gt;Node4</title>
<g id="a_edge3_Node000001_Node000004"><a xlink:title=" ">
<path fill="none" stroke="#63b8ff" d="M103.94,-82.26C111.8,-80.91 120.03,-79.5 128.22,-78.1"/>
<polygon fill="#63b8ff" stroke="#63b8ff" points="128.57,-81.59 137.84,-76.45 127.39,-74.69 128.57,-81.59"/>
</a>
</g>
</g>
<!-- Node5 -->
<g id="Node000005" class="node">
<title>Node5</title>
<g id="a_Node000005"><a xlink:href="../../d5/d50/namespacegenerate__docs.html#a86a91a6994d5ba7866e2dcd6f31532a4" target="_top" xlink:title=" ">
<polygon fill="white" stroke="#666666" points="251.75,-32 148,-32 148,0 251.75,0 251.75,-32"/>
<text xml:space="preserve" text-anchor="start" x="156" y="-18.5" font-family="Helvetica,sans-Serif" font-size="10.00">generate_docs.open</text>
<text xml:space="preserve" text-anchor="middle" x="199.88" y="-6.5" font-family="Helvetica,sans-Serif" font-size="10.00">_documentation</text>
</a>
</g>
</g>
<!-- Node1&#45;&gt;Node5 -->
<g id="edge5_Node000001_Node000005" class="edge">
<title>Node1&#45;&gt;Node5</title>
<g id="a_edge5_Node000001_Node000005"><a xlink:title=" ">
<path fill="none" stroke="#63b8ff" d="M69.52,-80.6C86.77,-70.03 114.66,-53.47 139.75,-41 142.42,-39.67 145.17,-38.35 147.97,-37.05"/>
<polygon fill="#63b8ff" stroke="#63b8ff" points="149.14,-40.36 156.81,-33.05 146.25,-33.98 149.14,-40.36"/>
</a>
</g>
</g>
</g>
</svg>
