<?xml version="1.0" encoding="UTF-8" standalone="no"?>
<!DOCTYPE svg PUBLIC "-//W3C//DTD SVG 1.1//EN"
 "http://www.w3.org/Graphics/SVG/1.1/DTD/svg11.dtd">
<!-- Generated by graphviz version 14.0.5 (20251129.0259)
 -->
<!-- Title: model.create_spark_and_load_data Pages: 1 -->
<svg width="368pt" height="90pt"
 viewBox="0.00 0.00 368.00 90.00" xmlns="http://www.w3.org/2000/svg" xmlns:xlink="http://www.w3.org/1999/xlink">
<g id="graph0" class="graph" transform="scale(1 1) rotate(0) translate(4 86)">
<title>model.create_spark_and_load_data</title>
<!-- Node1 -->
<g id="Node000001" class="node">
<title>Node1</title>
<g id="a_Node000001"><a xlink:title=" ">
<polygon fill="#999999" stroke="#666666" points="101.5,-57 0,-57 0,-25 101.5,-25 101.5,-57"/>
<text xml:space="preserve" text-anchor="start" x="8" y="-43.5" font-family="Helvetica,sans-Serif" font-size="10.00">model.create_spark</text>
<text xml:space="preserve" text-anchor="middle" x="50.75" y="-31.5" font-family="Helvetica,sans-Serif" font-size="10.00">_and_load_data</text>
</a>
</g>
</g>
<!-- Node2 -->
<g id="Node000002" class="node">
<title>Node2</title>
<g id="a_Node000002"><a xlink:href="../../db/dee/namespacemodel.html#ab76add272889a3e6ca4f5616f36f414a" target="_top" xlink:title=" ">
<polygon fill="white" stroke="#666666" points="222.5,-51 137.5,-51 137.5,-31 222.5,-31 222.5,-51"/>
<text xml:space="preserve" text-anchor="middle" x="180" y="-37.5" font-family="Helvetica,sans-Serif" font-size="10.00">model.read_csv</text>
</a>
</g>
</g>
<!-- Node1&#45;&gt;Node2 -->
<g id="edge1_Node000001_Node000002" class="edge">
<title>Node1&#45;&gt;Node2</title>
<g id="a_edge1_Node000001_Node000002"><a xlink:title=" ">
<path fill="none" stroke="#63b8ff" d="M101.68,-41C109.54,-41 117.69,-41 125.62,-41"/>
<polygon fill="#63b8ff" stroke="#63b8ff" points="125.52,-44.5 135.52,-41 125.52,-37.5 125.52,-44.5"/>
</a>
</g>
</g>
<!-- Node3 -->
<g id="Node000003" class="node">
<title>Node3</title>
<g id="a_Node000003"><a xlink:href="../../db/dee/namespacemodel.html#a58d81c4b15c700d2acacf1161984d941" target="_top" xlink:title=" ">
<polygon fill="white" stroke="#666666" points="360,-82 258.5,-82 258.5,-50 360,-50 360,-82"/>
<text xml:space="preserve" text-anchor="start" x="266.5" y="-68.5" font-family="Helvetica,sans-Serif" font-size="10.00">model.extract_base</text>
<text xml:space="preserve" text-anchor="middle" x="309.25" y="-56.5" font-family="Helvetica,sans-Serif" font-size="10.00">_title</text>
</a>
</g>
</g>
<!-- Node2&#45;&gt;Node3 -->
<g id="edge2_Node000002_Node000003" class="edge">
<title>Node2&#45;&gt;Node3</title>
<g id="a_edge2_Node000002_Node000003"><a xlink:title=" ">
<path fill="none" stroke="#63b8ff" d="M222.67,-49.19C230.44,-50.71 238.71,-52.34 246.93,-53.95"/>
<polygon fill="#63b8ff" stroke="#63b8ff" points="246.09,-57.35 256.58,-55.85 247.44,-50.49 246.09,-57.35"/>
</a>
</g>
</g>
<!-- Node4 -->
<g id="Node000004" class="node">
<title>Node4</title>
<g id="a_Node000004"><a xlink:href="../../db/dee/namespacemodel.html#ab4b65039e0d99a2d9cee6e1bb38f5728" target="_top" xlink:title=" ">
<polygon fill="white" stroke="#666666" points="358.88,-32 259.62,-32 259.62,0 358.88,0 358.88,-32"/>
<text xml:space="preserve" text-anchor="start" x="267.62" y="-18.5" font-family="Helvetica,sans-Serif" font-size="10.00">model.extract_cast</text>
<text xml:space="preserve" text-anchor="middle" x="309.25" y="-6.5" font-family="Helvetica,sans-Serif" font-size="10.00">_names</text>
</a>
</g>
</g>
<!-- Node2&#45;&gt;Node4 -->
<g id="edge3_Node000002_Node000004" class="edge">
<title>Node2&#45;&gt;Node4</title>
<g id="a_edge3_Node000002_Node000004"><a xlink:title=" ">
<path fill="none" stroke="#63b8ff" d="M222.67,-32.81C230.83,-31.21 239.55,-29.5 248.17,-27.8"/>
<polygon fill="#63b8ff" stroke="#63b8ff" points="248.79,-31.25 257.92,-25.89 247.44,-24.38 248.79,-31.25"/>
</a>
</g>
</g>
</g>
</svg>
