<?xml version="1.0" encoding="UTF-8" standalone="no"?>
<!DOCTYPE svg PUBLIC "-//W3C//DTD SVG 1.1//EN"
 "http://www.w3.org/Graphics/SVG/1.1/DTD/svg11.dtd">
<!-- Generated by graphviz version 14.0.5 (20251129.0259)
 -->
<!-- Title: model.franchise_similarity Pages: 1 -->
<svg width="333pt" height="78pt"
 viewBox="0.00 0.00 333.00 78.00" xmlns="http://www.w3.org/2000/svg" xmlns:xlink="http://www.w3.org/1999/xlink">
<g id="graph0" class="graph" transform="scale(1 1) rotate(0) translate(4 74)">
<title>model.franchise_similarity</title>
<!-- Node1 -->
<g id="Node000001" class="node">
<title>Node1</title>
<g id="a_Node000001"><a xlink:title=" ">
<polygon fill="#999999" stroke="#666666" points="325.25,-42 196,-42 196,-22 325.25,-22 325.25,-42"/>
<text xml:space="preserve" text-anchor="middle" x="260.62" y="-28.5" font-family="Helvetica,sans-Serif" font-size="10.00">model.franchise_similarity</text>
</a>
</g>
</g>
<!-- Node2 -->
<g id="Node000002" class="node">
<title>Node2</title>
<g id="a_Node000002"><a xlink:href="../../db/dee/namespacemodel.html#aafd8a20591eda7adca62fcfcd4c4ccfd" target="_top" xlink:title=" ">
<polygon fill="white" stroke="#666666" points="150.62,-70 9.38,-70 9.38,-38 150.62,-38 150.62,-70"/>
<text xml:space="preserve" text-anchor="start" x="17.38" y="-56.5" font-family="Helvetica,sans-Serif" font-size="10.00">model.get_recommendations</text>
<text xml:space="preserve" text-anchor="middle" x="80" y="-44.5" font-family="Helvetica,sans-Serif" font-size="10.00">_for_last_added</text>
</a>
</g>
</g>
<!-- Node1&#45;&gt;Node2 -->
<g id="edge1_Node000001_Node000002" class="edge">
<title>Node1&#45;&gt;Node2</title>
<g id="a_edge1_Node000001_Node000002"><a xlink:title=" ">
<path fill="none" stroke="#63b8ff" d="M184.25,-41.28C173.19,-42.65 161.84,-44.04 150.89,-45.39"/>
<polygon fill="#63b8ff" stroke="#63b8ff" points="184.64,-44.76 194.14,-40.07 183.79,-37.81 184.64,-44.76"/>
</a>
</g>
</g>
<!-- Node3 -->
<g id="Node000003" class="node">
<title>Node3</title>
<g id="a_Node000003"><a xlink:href="../../db/dee/namespacemodel.html#a7d2eb0317cb13b0ac39ce798dd1cd706" target="_top" xlink:title=" ">
<polygon fill="white" stroke="#666666" points="160,-20 0,-20 0,0 160,0 160,-20"/>
<text xml:space="preserve" text-anchor="middle" x="80" y="-6.5" font-family="Helvetica,sans-Serif" font-size="10.00">model.get_top_recommendations</text>
</a>
</g>
</g>
<!-- Node1&#45;&gt;Node3 -->
<g id="edge2_Node000001_Node000003" class="edge">
<title>Node1&#45;&gt;Node3</title>
<g id="a_edge2_Node000001_Node000003"><a xlink:title=" ">
<path fill="none" stroke="#63b8ff" d="M184.24,-22.72C176.37,-21.75 168.35,-20.76 160.43,-19.78"/>
<polygon fill="#63b8ff" stroke="#63b8ff" points="183.79,-26.19 194.14,-23.93 184.64,-19.24 183.79,-26.19"/>
</a>
</g>
</g>
</g>
</svg>
