<?xml version="1.0" encoding="UTF-8" standalone="no"?>
<!DOCTYPE svg PUBLIC "-//W3C//DTD SVG 1.1//EN"
 "http://www.w3.org/Graphics/SVG/1.1/DTD/svg11.dtd">
<!-- Generated by graphviz version 14.0.5 (20251129.0259)
 -->
<!-- Title: model.get_recommendations_by_most_common_genre Pages: 1 -->
<svg width="545pt" height="90pt"
 viewBox="0.00 0.00 545.00 90.00" xmlns="http://www.w3.org/2000/svg" xmlns:xlink="http://www.w3.org/1999/xlink">
<g id="graph0" class="graph" transform="scale(1 1) rotate(0) translate(4 86)">
<title>model.get_recommendations_by_most_common_genre</title>
<!-- Node1 -->
<g id="Node000001" class="node">
<title>Node1</title>
<g id="a_Node000001"><a xlink:title=" ">
<polygon fill="#999999" stroke="#666666" points="141.25,-57 0,-57 0,-25 141.25,-25 141.25,-57"/>
<text xml:space="preserve" text-anchor="start" x="8" y="-43.5" font-family="Helvetica,sans-Serif" font-size="10.00">model.get_recommendations</text>
<text xml:space="preserve" text-anchor="middle" x="70.62" y="-31.5" font-family="Helvetica,sans-Serif" font-size="10.00">_by_most_common_genre</text>
</a>
</g>
</g>
<!-- Node2 -->
<g id="Node000002" class="node">
<title>Node2</title>
<g id="a_Node000002"><a xlink:href="../../db/dee/namespacemodel.html#a3f3c6f856f4b587d404194ce557612b9" target="_top" xlink:title=" ">
<polygon fill="white" stroke="#666666" points="278.75,-57 177.25,-57 177.25,-25 278.75,-25 278.75,-57"/>
<text xml:space="preserve" text-anchor="start" x="185.25" y="-43.5" font-family="Helvetica,sans-Serif" font-size="10.00">model.create_spark</text>
<text xml:space="preserve" text-anchor="middle" x="228" y="-31.5" font-family="Helvetica,sans-Serif" font-size="10.00">_and_load_data</text>
</a>
</g>
</g>
<!-- Node1&#45;&gt;Node2 -->
<g id="edge1_Node000001_Node000002" class="edge">
<title>Node1&#45;&gt;Node2</title>
<g id="a_edge1_Node000001_Node000002"><a xlink:title=" ">
<path fill="none" stroke="#63b8ff" d="M141.59,-41C149.59,-41 157.72,-41 165.6,-41"/>
<polygon fill="#63b8ff" stroke="#63b8ff" points="165.43,-44.5 175.43,-41 165.43,-37.5 165.43,-44.5"/>
</a>
</g>
</g>
<!-- Node3 -->
<g id="Node000003" class="node">
<title>Node3</title>
<g id="a_Node000003"><a xlink:href="../../db/dee/namespacemodel.html#ab76add272889a3e6ca4f5616f36f414a" target="_top" xlink:title=" ">
<polygon fill="white" stroke="#666666" points="399.75,-51 314.75,-51 314.75,-31 399.75,-31 399.75,-51"/>
<text xml:space="preserve" text-anchor="middle" x="357.25" y="-37.5" font-family="Helvetica,sans-Serif" font-size="10.00">model.read_csv</text>
</a>
</g>
</g>
<!-- Node2&#45;&gt;Node3 -->
<g id="edge2_Node000002_Node000003" class="edge">
<title>Node2&#45;&gt;Node3</title>
<g id="a_edge2_Node000002_Node000003"><a xlink:title=" ">
<path fill="none" stroke="#63b8ff" d="M278.93,-41C286.79,-41 294.94,-41 302.87,-41"/>
<polygon fill="#63b8ff" stroke="#63b8ff" points="302.77,-44.5 312.77,-41 302.77,-37.5 302.77,-44.5"/>
</a>
</g>
</g>
<!-- Node4 -->
<g id="Node000004" class="node">
<title>Node4</title>
<g id="a_Node000004"><a xlink:href="../../db/dee/namespacemodel.html#a58d81c4b15c700d2acacf1161984d941" target="_top" xlink:title=" ">
<polygon fill="white" stroke="#666666" points="537.25,-82 435.75,-82 435.75,-50 537.25,-50 537.25,-82"/>
<text xml:space="preserve" text-anchor="start" x="443.75" y="-68.5" font-family="Helvetica,sans-Serif" font-size="10.00">model.extract_base</text>
<text xml:space="preserve" text-anchor="middle" x="486.5" y="-56.5" font-family="Helvetica,sans-Serif" font-size="10.00">_title</text>
</a>
</g>
</g>
<!-- Node3&#45;&gt;Node4 -->
<g id="edge3_Node000003_Node000004" class="edge">
<title>Node3&#45;&gt;Node4</title>
<g id="a_edge3_Node000003_Node000004"><a xlink:title=" ">
<path fill="none" stroke="#63b8ff" d="M399.92,-49.19C407.69,-50.71 415.96,-52.34 424.18,-53.95"/>
<polygon fill="#63b8ff" stroke="#63b8ff" points="423.34,-57.35 433.83,-55.85 424.69,-50.49 423.34,-57.35"/>
</a>
</g>
</g>
<!-- Node5 -->
<g id="Node000005" class="node">
<title>Node5</title>
<g id="a_Node000005"><a xlink:href="../../db/dee/namespacemodel.html#ab4b65039e0d99a2d9cee6e1bb38f5728" target="_top" xlink:title=" ">
<polygon fill="white" stroke="#666666" points="536.12,-32 436.88,-32 436.88,0 536.12,0 536.12,-32"/>
<text xml:space="preserve" text-anchor="start" x="444.88" y="-18.5" font-family="Helvetica,sans-Serif" font-size="10.00">model.extract_cast</text>
<text xml:space="preserve" text-anchor="middle" x="486.5" y="-6.5" font-family="Helvetica,sans-Serif" font-size="10.00">_names</text>
</a>
</g>
</g>
<!-- Node3&#45;&gt;Node5 -->
<g id="edge4_Node000003_Node000005" class="edge">
<title>Node3&#45;&gt;Node5</title>
<g id="a_edge4_Node000003_Node000005"><a xlink:title=" ">
<path fill="none" stroke="#63b8ff" d="M399.92,-32.81C408.08,-31.21 416.8,-29.5 425.42,-27.8"/>
<polygon fill="#63b8ff" stroke="#63b8ff" points="426.04,-31.25 435.17,-25.89 424.69,-24.38 426.04,-31.25"/>
</a>
</g>
</g>
</g>
</svg>
