<?xml version="1.0" encoding="UTF-8" standalone="no"?>
<!DOCTYPE svg PUBLIC "-//W3C//DTD SVG 1.1//EN"
 "http://www.w3.org/Graphics/SVG/1.1/DTD/svg11.dtd">
<!-- Generated by graphviz version 14.0.5 (20251129.0259)
 -->
<!-- Title: model.get_recommendations_for_last_added Pages: 1 -->
<svg width="590pt" height="112pt"
 viewBox="0.00 0.00 590.00 112.00" xmlns="http://www.w3.org/2000/svg" xmlns:xlink="http://www.w3.org/1999/xlink">
<g id="graph0" class="graph" transform="scale(1 1) rotate(0) translate(4 108)">
<title>model.get_recommendations_for_last_added</title>
<!-- Node1 -->
<g id="Node000001" class="node">
<title>Node1</title>
<g id="a_Node000001"><a xlink:title=" ">
<polygon fill="#999999" stroke="#666666" points="141.25,-67 0,-67 0,-35 141.25,-35 141.25,-67"/>
<text xml:space="preserve" text-anchor="start" x="8" y="-53.5" font-family="Helvetica,sans-Serif" font-size="10.00">model.get_recommendations</text>
<text xml:space="preserve" text-anchor="middle" x="70.62" y="-41.5" font-family="Helvetica,sans-Serif" font-size="10.00">_for_last_added</text>
</a>
</g>
</g>
<!-- Node2 -->
<g id="Node000002" class="node">
<title>Node2</title>
<g id="a_Node000002"><a xlink:href="../../db/dee/namespacemodel.html#a3f3c6f856f4b587d404194ce557612b9" target="_top" xlink:title=" ">
<polygon fill="white" stroke="#666666" points="278.75,-67 177.25,-67 177.25,-35 278.75,-35 278.75,-67"/>
<text xml:space="preserve" text-anchor="start" x="185.25" y="-53.5" font-family="Helvetica,sans-Serif" font-size="10.00">model.create_spark</text>
<text xml:space="preserve" text-anchor="middle" x="228" y="-41.5" font-family="Helvetica,sans-Serif" font-size="10.00">_and_load_data</text>
</a>
</g>
</g>
<!-- Node1&#45;&gt;Node2 -->
<g id="edge1_Node000001_Node000002" class="edge">
<title>Node1&#45;&gt;Node2</title>
<g id="a_edge1_Node000001_Node000002"><a xlink:title=" ">
<path fill="none" stroke="#63b8ff" d="M141.59,-51C149.59,-51 157.72,-51 165.6,-51"/>
<polygon fill="#63b8ff" stroke="#63b8ff" points="165.43,-54.5 175.43,-51 165.43,-47.5 165.43,-54.5"/>
</a>
</g>
</g>
<!-- Node5 -->
<g id="Node000005" class="node">
<title>Node5</title>
<g id="a_Node000005"><a xlink:href="../../db/dee/namespacemodel.html#ab4b65039e0d99a2d9cee6e1bb38f5728" target="_top" xlink:title=" ">
<polygon fill="white" stroke="#666666" points="580.38,-104 481.12,-104 481.12,-72 580.38,-72 580.38,-104"/>
<text xml:space="preserve" text-anchor="start" x="489.12" y="-90.5" font-family="Helvetica,sans-Serif" font-size="10.00">model.extract_cast</text>
<text xml:space="preserve" text-anchor="middle" x="530.75" y="-78.5" font-family="Helvetica,sans-Serif" font-size="10.00">_names</text>
</a>
</g>
</g>
<!-- Node1&#45;&gt;Node5 -->
<g id="edge5_Node000001_Node000005" class="edge">
<title>Node1&#45;&gt;Node5</title>
<g id="a_edge5_Node000001_Node000005"><a xlink:title=" ">
<path fill="none" stroke="#63b8ff" d="M132.12,-67.49C146.79,-70.88 162.49,-74.02 177.25,-76 279.15,-89.66 399.02,-90.56 469.45,-89.57"/>
<polygon fill="#63b8ff" stroke="#63b8ff" points="469.29,-93.07 479.23,-89.41 469.17,-86.07 469.29,-93.07"/>
</a>
</g>
</g>
<!-- Node6 -->
<g id="Node000006" class="node">
<title>Node6</title>
<g id="a_Node000006"><a xlink:href="../../db/dee/namespacemodel.html#a9f08323d5e43c2ca0f8ea63fb080305e" target="_top" xlink:title=" ">
<polygon fill="white" stroke="#666666" points="444,-20 314.75,-20 314.75,0 444,0 444,-20"/>
<text xml:space="preserve" text-anchor="middle" x="379.38" y="-6.5" font-family="Helvetica,sans-Serif" font-size="10.00">model.franchise_similarity</text>
</a>
</g>
</g>
<!-- Node1&#45;&gt;Node6 -->
<g id="edge6_Node000001_Node000006" class="edge">
<title>Node1&#45;&gt;Node6</title>
<g id="a_edge6_Node000001_Node000006"><a xlink:title=" ">
<path fill="none" stroke="#63b8ff" d="M134.15,-34.54C148.24,-31.29 163.2,-28.21 177.25,-26 218.64,-19.49 265.27,-15.57 303.2,-13.25"/>
<polygon fill="#63b8ff" stroke="#63b8ff" points="303.39,-16.74 313.16,-12.66 302.98,-9.75 303.39,-16.74"/>
</a>
</g>
</g>
<!-- Node3 -->
<g id="Node000003" class="node">
<title>Node3</title>
<g id="a_Node000003"><a xlink:href="../../db/dee/namespacemodel.html#ab76add272889a3e6ca4f5616f36f414a" target="_top" xlink:title=" ">
<polygon fill="white" stroke="#666666" points="421.88,-61 336.88,-61 336.88,-41 421.88,-41 421.88,-61"/>
<text xml:space="preserve" text-anchor="middle" x="379.38" y="-47.5" font-family="Helvetica,sans-Serif" font-size="10.00">model.read_csv</text>
</a>
</g>
</g>
<!-- Node2&#45;&gt;Node3 -->
<g id="edge2_Node000002_Node000003" class="edge">
<title>Node2&#45;&gt;Node3</title>
<g id="a_edge2_Node000002_Node000003"><a xlink:title=" ">
<path fill="none" stroke="#63b8ff" d="M279.16,-51C294.01,-51 310.33,-51 325.36,-51"/>
<polygon fill="#63b8ff" stroke="#63b8ff" points="325.05,-54.5 335.05,-51 325.05,-47.5 325.05,-54.5"/>
</a>
</g>
</g>
<!-- Node4 -->
<g id="Node000004" class="node">
<title>Node4</title>
<g id="a_Node000004"><a xlink:href="../../db/dee/namespacemodel.html#a58d81c4b15c700d2acacf1161984d941" target="_top" xlink:title=" ">
<polygon fill="white" stroke="#666666" points="581.5,-45 480,-45 480,-13 581.5,-13 581.5,-45"/>
<text xml:space="preserve" text-anchor="start" x="488" y="-31.5" font-family="Helvetica,sans-Serif" font-size="10.00">model.extract_base</text>
<text xml:space="preserve" text-anchor="middle" x="530.75" y="-19.5" font-family="Helvetica,sans-Serif" font-size="10.00">_title</text>
</a>
</g>
</g>
<!-- Node3&#45;&gt;Node4 -->
<g id="edge3_Node000003_Node000004" class="edge">
<title>Node3&#45;&gt;Node4</title>
<g id="a_edge3_Node000003_Node000004"><a xlink:title=" ">
<path fill="none" stroke="#63b8ff" d="M421.98,-44.87C436.36,-42.75 452.79,-40.33 468.42,-38.03"/>
<polygon fill="#63b8ff" stroke="#63b8ff" points="468.73,-41.53 478.11,-36.61 467.71,-34.6 468.73,-41.53"/>
</a>
</g>
</g>
<!-- Node3&#45;&gt;Node5 -->
<g id="edge4_Node000003_Node000005" class="edge">
<title>Node3&#45;&gt;Node5</title>
<g id="a_edge4_Node000003_Node000005"><a xlink:title=" ">
<path fill="none" stroke="#63b8ff" d="M421.98,-61.31C436.78,-64.97 453.75,-69.18 469.78,-73.15"/>
<polygon fill="#63b8ff" stroke="#63b8ff" points="468.67,-76.48 479.22,-75.48 470.36,-69.68 468.67,-76.48"/>
</a>
</g>
</g>
<!-- Node6&#45;&gt;Node4 -->
<g id="edge7_Node000006_Node000004" class="edge">
<title>Node6&#45;&gt;Node4</title>
<g id="a_edge7_Node000006_Node000004"><a xlink:title=" ">
<path fill="none" stroke="#63b8ff" d="M444.16,-18.11C452.24,-19.14 460.5,-20.19 468.54,-21.21"/>
<polygon fill="#63b8ff" stroke="#63b8ff" points="467.87,-24.66 478.23,-22.45 468.75,-17.71 467.87,-24.66"/>
</a>
</g>
</g>
</g>
</svg>
