<?xml version="1.0" encoding="UTF-8" standalone="no"?>
<!DOCTYPE svg PUBLIC "-//W3C//DTD SVG 1.1//EN"
 "http://www.w3.org/Graphics/SVG/1.1/DTD/svg11.dtd">
<!-- Generated by graphviz version 14.0.5 (20251129.0259)
 -->
<!-- Title: model.read_csv Pages: 1 -->
<svg width="427pt" height="128pt"
 viewBox="0.00 0.00 427.00 128.00" xmlns="http://www.w3.org/2000/svg" xmlns:xlink="http://www.w3.org/1999/xlink">
<g id="graph0" class="graph" transform="scale(1 1) rotate(0) translate(4 124)">
<title>model.read_csv</title>
<!-- Node1 -->
<g id="Node000001" class="node">
<title>Node1</title>
<g id="a_Node000001"><a xlink:title=" ">
<polygon fill="#999999" stroke="#666666" points="418.5,-64 333.5,-64 333.5,-44 418.5,-44 418.5,-64"/>
<text xml:space="preserve" text-anchor="middle" x="376" y="-50.5" font-family="Helvetica,sans-Serif" font-size="10.00">model.read_csv</text>
</a>
</g>
</g>
<!-- Node2 -->
<g id="Node000002" class="node">
<title>Node2</title>
<g id="a_Node000002"><a xlink:href="../../db/dee/namespacemodel.html#a3f3c6f856f4b587d404194ce557612b9" target="_top" xlink:title=" ">
<polygon fill="white" stroke="#666666" points="297.5,-70 196,-70 196,-38 297.5,-38 297.5,-70"/>
<text xml:space="preserve" text-anchor="start" x="204" y="-56.5" font-family="Helvetica,sans-Serif" font-size="10.00">model.create_spark</text>
<text xml:space="preserve" text-anchor="middle" x="246.75" y="-44.5" font-family="Helvetica,sans-Serif" font-size="10.00">_and_load_data</text>
</a>
</g>
</g>
<!-- Node1&#45;&gt;Node2 -->
<g id="edge1_Node000001_Node000002" class="edge">
<title>Node1&#45;&gt;Node2</title>
<g id="a_edge1_Node000001_Node000002"><a xlink:title=" ">
<path fill="none" stroke="#63b8ff" d="M321.92,-54C313.98,-54 305.82,-54 297.94,-54"/>
<polygon fill="#63b8ff" stroke="#63b8ff" points="321.82,-57.5 331.82,-54 321.82,-50.5 321.82,-57.5"/>
</a>
</g>
</g>
<!-- Node3 -->
<g id="Node000003" class="node">
<title>Node3</title>
<g id="a_Node000003"><a xlink:href="../../db/dee/namespacemodel.html#aae35f955631a4acd0af47fb50c207ad4" target="_top" xlink:title=" ">
<polygon fill="white" stroke="#666666" points="150.62,-120 9.38,-120 9.38,-88 150.62,-88 150.62,-120"/>
<text xml:space="preserve" text-anchor="start" x="17.38" y="-106.5" font-family="Helvetica,sans-Serif" font-size="10.00">model.get_recommendations</text>
<text xml:space="preserve" text-anchor="middle" x="80" y="-94.5" font-family="Helvetica,sans-Serif" font-size="10.00">_by_most_common_genre</text>
</a>
</g>
</g>
<!-- Node2&#45;&gt;Node3 -->
<g id="edge2_Node000002_Node000003" class="edge">
<title>Node2&#45;&gt;Node3</title>
<g id="a_edge2_Node000002_Node000003"><a xlink:title=" ">
<path fill="none" stroke="#63b8ff" d="M185.32,-72.34C168.94,-77.31 151.32,-82.66 135.3,-87.52"/>
<polygon fill="#63b8ff" stroke="#63b8ff" points="185.87,-75.83 194.42,-69.58 183.84,-69.13 185.87,-75.83"/>
</a>
</g>
</g>
<!-- Node4 -->
<g id="Node000004" class="node">
<title>Node4</title>
<g id="a_Node000004"><a xlink:href="../../db/dee/namespacemodel.html#aafd8a20591eda7adca62fcfcd4c4ccfd" target="_top" xlink:title=" ">
<polygon fill="white" stroke="#666666" points="150.62,-70 9.38,-70 9.38,-38 150.62,-38 150.62,-70"/>
<text xml:space="preserve" text-anchor="start" x="17.38" y="-56.5" font-family="Helvetica,sans-Serif" font-size="10.00">model.get_recommendations</text>
<text xml:space="preserve" text-anchor="middle" x="80" y="-44.5" font-family="Helvetica,sans-Serif" font-size="10.00">_for_last_added</text>
</a>
</g>
</g>
<!-- Node2&#45;&gt;Node4 -->
<g id="edge3_Node000002_Node000004" class="edge">
<title>Node2&#45;&gt;Node4</title>
<g id="a_edge3_Node000002_Node000004"><a xlink:title=" ">
<path fill="none" stroke="#63b8ff" d="M184.69,-54C173.74,-54 162.25,-54 151.07,-54"/>
<polygon fill="#63b8ff" stroke="#63b8ff" points="184.36,-57.5 194.36,-54 184.36,-50.5 184.36,-57.5"/>
</a>
</g>
</g>
<!-- Node5 -->
<g id="Node000005" class="node">
<title>Node5</title>
<g id="a_Node000005"><a xlink:href="../../db/dee/namespacemodel.html#a7d2eb0317cb13b0ac39ce798dd1cd706" target="_top" xlink:title=" ">
<polygon fill="white" stroke="#666666" points="160,-20 0,-20 0,0 160,0 160,-20"/>
<text xml:space="preserve" text-anchor="middle" x="80" y="-6.5" font-family="Helvetica,sans-Serif" font-size="10.00">model.get_top_recommendations</text>
</a>
</g>
</g>
<!-- Node2&#45;&gt;Node5 -->
<g id="edge4_Node000002_Node000005" class="edge">
<title>Node2&#45;&gt;Node5</title>
<g id="a_edge4_Node000002_Node000005"><a xlink:title=" ">
<path fill="none" stroke="#63b8ff" d="M184.74,-35.83C176.44,-33.47 168.02,-31.13 160,-29 149.09,-26.1 137.29,-23.16 126.21,-20.48"/>
<polygon fill="#63b8ff" stroke="#63b8ff" points="183.5,-39.11 194.08,-38.51 185.43,-32.38 183.5,-39.11"/>
</a>
</g>
</g>
</g>
</svg>
