<?xml version="1.0" encoding="UTF-8" standalone="no"?>
<!DOCTYPE svg PUBLIC "-//W3C//DTD SVG 1.1//EN"
 "http://www.w3.org/Graphics/SVG/1.1/DTD/svg11.dtd">
<!-- Generated by graphviz version 14.0.5 (20251129.0259)
 -->
<!-- Title: model.read_csv Pages: 1 -->
<svg width="231pt" height="90pt"
 viewBox="0.00 0.00 231.00 90.00" xmlns="http://www.w3.org/2000/svg" xmlns:xlink="http://www.w3.org/1999/xlink">
<g id="graph0" class="graph" transform="scale(1 1) rotate(0) translate(4 86)">
<title>model.read_csv</title>
<!-- Node1 -->
<g id="Node000001" class="node">
<title>Node1</title>
<g id="a_Node000001"><a xlink:title=" ">
<polygon fill="#999999" stroke="#666666" points="85,-51 0,-51 0,-31 85,-31 85,-51"/>
<text xml:space="preserve" text-anchor="middle" x="42.5" y="-37.5" font-family="Helvetica,sans-Serif" font-size="10.00">model.read_csv</text>
</a>
</g>
</g>
<!-- Node2 -->
<g id="Node000002" class="node">
<title>Node2</title>
<g id="a_Node000002"><a xlink:href="../../db/dee/namespacemodel.html#a58d81c4b15c700d2acacf1161984d941" target="_top" xlink:title=" ">
<polygon fill="white" stroke="#666666" points="222.5,-82 121,-82 121,-50 222.5,-50 222.5,-82"/>
<text xml:space="preserve" text-anchor="start" x="129" y="-68.5" font-family="Helvetica,sans-Serif" font-size="10.00">model.extract_base</text>
<text xml:space="preserve" text-anchor="middle" x="171.75" y="-56.5" font-family="Helvetica,sans-Serif" font-size="10.00">_title</text>
</a>
</g>
</g>
<!-- Node1&#45;&gt;Node2 -->
<g id="edge1_Node000001_Node000002" class="edge">
<title>Node1&#45;&gt;Node2</title>
<g id="a_edge1_Node000001_Node000002"><a xlink:title=" ">
<path fill="none" stroke="#63b8ff" d="M85.17,-49.19C92.94,-50.71 101.21,-52.34 109.43,-53.95"/>
<polygon fill="#63b8ff" stroke="#63b8ff" points="108.59,-57.35 119.08,-55.85 109.94,-50.49 108.59,-57.35"/>
</a>
</g>
</g>
<!-- Node3 -->
<g id="Node000003" class="node">
<title>Node3</title>
<g id="a_Node000003"><a xlink:href="../../db/dee/namespacemodel.html#ab4b65039e0d99a2d9cee6e1bb38f5728" target="_top" xlink:title=" ">
<polygon fill="white" stroke="#666666" points="221.38,-32 122.12,-32 122.12,0 221.38,0 221.38,-32"/>
<text xml:space="preserve" text-anchor="start" x="130.12" y="-18.5" font-family="Helvetica,sans-Serif" font-size="10.00">model.extract_cast</text>
<text xml:space="preserve" text-anchor="middle" x="171.75" y="-6.5" font-family="Helvetica,sans-Serif" font-size="10.00">_names</text>
</a>
</g>
</g>
<!-- Node1&#45;&gt;Node3 -->
<g id="edge2_Node000001_Node000003" class="edge">
<title>Node1&#45;&gt;Node3</title>
<g id="a_edge2_Node000001_Node000003"><a xlink:title=" ">
<path fill="none" stroke="#63b8ff" d="M85.17,-32.81C93.33,-31.21 102.05,-29.5 110.67,-27.8"/>
<polygon fill="#63b8ff" stroke="#63b8ff" points="111.29,-31.25 120.42,-25.89 109.94,-24.38 111.29,-31.25"/>
</a>
</g>
</g>
</g>
</svg>
