<?xml version="1.0" encoding="UTF-8" standalone="no"?>
<!DOCTYPE svg PUBLIC "-//W3C//DTD SVG 1.1//EN"
 "http://www.w3.org/Graphics/SVG/1.1/DTD/svg11.dtd">
<!-- Generated by graphviz version 14.0.5 (20251129.0259)
 -->
<!-- Title: model.extract_base_title Pages: 1 -->
<svg width="592pt" height="128pt"
 viewBox="0.00 0.00 592.00 128.00" xmlns="http://www.w3.org/2000/svg" xmlns:xlink="http://www.w3.org/1999/xlink">
<g id="graph0" class="graph" transform="scale(1 1) rotate(0) translate(4 124)">
<title>model.extract_base_title</title>
<!-- Node1 -->
<g id="Node000001" class="node">
<title>Node1</title>
<g id="a_Node000001"><a xlink:title=" ">
<polygon fill="#999999" stroke="#666666" points="583.75,-104 482.25,-104 482.25,-72 583.75,-72 583.75,-104"/>
<text xml:space="preserve" text-anchor="start" x="490.25" y="-90.5" font-family="Helvetica,sans-Serif" font-size="10.00">model.extract_base</text>
<text xml:space="preserve" text-anchor="middle" x="533" y="-78.5" font-family="Helvetica,sans-Serif" font-size="10.00">_title</text>
</a>
</g>
</g>
<!-- Node2 -->
<g id="Node000002" class="node">
<title>Node2</title>
<g id="a_Node000002"><a xlink:href="../../db/dee/namespacemodel.html#a9f08323d5e43c2ca0f8ea63fb080305e" target="_top" xlink:title=" ">
<polygon fill="white" stroke="#666666" points="325.25,-120 196,-120 196,-100 325.25,-100 325.25,-120"/>
<text xml:space="preserve" text-anchor="middle" x="260.62" y="-106.5" font-family="Helvetica,sans-Serif" font-size="10.00">model.franchise_similarity</text>
</a>
</g>
</g>
<!-- Node1&#45;&gt;Node2 -->
<g id="edge1_Node000001_Node000002" class="edge">
<title>Node1&#45;&gt;Node2</title>
<g id="a_edge1_Node000001_Node000002"><a xlink:title=" ">
<path fill="none" stroke="#63b8ff" d="M470.53,-93C427.18,-96.53 369.27,-101.24 325.42,-104.81"/>
<polygon fill="#63b8ff" stroke="#63b8ff" points="470.59,-96.51 480.27,-92.21 470.02,-89.53 470.59,-96.51"/>
</a>
</g>
</g>
<!-- Node5 -->
<g id="Node000005" class="node">
<title>Node5</title>
<g id="a_Node000005"><a xlink:href="../../db/dee/namespacemodel.html#ab76add272889a3e6ca4f5616f36f414a" target="_top" xlink:title=" ">
<polygon fill="white" stroke="#666666" points="446.25,-79 361.25,-79 361.25,-59 446.25,-59 446.25,-79"/>
<text xml:space="preserve" text-anchor="middle" x="403.75" y="-65.5" font-family="Helvetica,sans-Serif" font-size="10.00">model.read_csv</text>
</a>
</g>
</g>
<!-- Node1&#45;&gt;Node5 -->
<g id="edge4_Node000001_Node000005" class="edge">
<title>Node1&#45;&gt;Node5</title>
<g id="a_edge4_Node000001_Node000005"><a xlink:title=" ">
<path fill="none" stroke="#63b8ff" d="M470.69,-78.85C462.57,-77.63 454.41,-76.41 446.72,-75.27"/>
<polygon fill="#63b8ff" stroke="#63b8ff" points="470.17,-82.31 480.58,-80.32 471.2,-75.38 470.17,-82.31"/>
</a>
</g>
</g>
<!-- Node3 -->
<g id="Node000003" class="node">
<title>Node3</title>
<g id="a_Node000003"><a xlink:href="../../db/dee/namespacemodel.html#aafd8a20591eda7adca62fcfcd4c4ccfd" target="_top" xlink:title=" ">
<polygon fill="white" stroke="#666666" points="150.62,-82 9.38,-82 9.38,-50 150.62,-50 150.62,-82"/>
<text xml:space="preserve" text-anchor="start" x="17.38" y="-68.5" font-family="Helvetica,sans-Serif" font-size="10.00">model.get_recommendations</text>
<text xml:space="preserve" text-anchor="middle" x="80" y="-56.5" font-family="Helvetica,sans-Serif" font-size="10.00">_for_last_added</text>
</a>
</g>
</g>
<!-- Node2&#45;&gt;Node3 -->
<g id="edge2_Node000002_Node000003" class="edge">
<title>Node2&#45;&gt;Node3</title>
<g id="a_edge2_Node000002_Node000003"><a xlink:title=" ">
<path fill="none" stroke="#63b8ff" d="M206.22,-96.84C187.87,-92.32 167.1,-87.21 147.82,-82.46"/>
<polygon fill="#63b8ff" stroke="#63b8ff" points="205.28,-100.22 215.82,-99.21 206.95,-93.42 205.28,-100.22"/>
</a>
</g>
</g>
<!-- Node4 -->
<g id="Node000004" class="node">
<title>Node4</title>
<g id="a_Node000004"><a xlink:href="../../db/dee/namespacemodel.html#a7d2eb0317cb13b0ac39ce798dd1cd706" target="_top" xlink:title=" ">
<polygon fill="white" stroke="#666666" points="160,-120 0,-120 0,-100 160,-100 160,-120"/>
<text xml:space="preserve" text-anchor="middle" x="80" y="-106.5" font-family="Helvetica,sans-Serif" font-size="10.00">model.get_top_recommendations</text>
</a>
</g>
</g>
<!-- Node2&#45;&gt;Node4 -->
<g id="edge3_Node000002_Node000004" class="edge">
<title>Node2&#45;&gt;Node4</title>
<g id="a_edge3_Node000002_Node000004"><a xlink:title=" ">
<path fill="none" stroke="#63b8ff" d="M184.24,-110C176.37,-110 168.35,-110 160.43,-110"/>
<polygon fill="#63b8ff" stroke="#63b8ff" points="184.13,-113.5 194.13,-110 184.13,-106.5 184.13,-113.5"/>
</a>
</g>
</g>
<!-- Node6 -->
<g id="Node000006" class="node">
<title>Node6</title>
<g id="a_Node000006"><a xlink:href="../../db/dee/namespacemodel.html#a3f3c6f856f4b587d404194ce557612b9" target="_top" xlink:title=" ">
<polygon fill="white" stroke="#666666" points="311.38,-82 209.88,-82 209.88,-50 311.38,-50 311.38,-82"/>
<text xml:space="preserve" text-anchor="start" x="217.88" y="-68.5" font-family="Helvetica,sans-Serif" font-size="10.00">model.create_spark</text>
<text xml:space="preserve" text-anchor="middle" x="260.62" y="-56.5" font-family="Helvetica,sans-Serif" font-size="10.00">_and_load_data</text>
</a>
</g>
</g>
<!-- Node5&#45;&gt;Node6 -->
<g id="edge5_Node000005_Node000006" class="edge">
<title>Node5&#45;&gt;Node6</title>
<g id="a_edge5_Node000005_Node000006"><a xlink:title=" ">
<path fill="none" stroke="#63b8ff" d="M349.62,-67.87C337.17,-67.61 323.95,-67.32 311.64,-67.06"/>
<polygon fill="#63b8ff" stroke="#63b8ff" points="349.2,-71.36 359.28,-68.08 349.35,-64.36 349.2,-71.36"/>
</a>
</g>
</g>
<!-- Node6&#45;&gt;Node3 -->
<g id="edge7_Node000006_Node000003" class="edge">
<title>Node6&#45;&gt;Node3</title>
<g id="a_edge7_Node000006_Node000003"><a xlink:title=" ">
<path fill="none" stroke="#63b8ff" d="M198.03,-66C182.82,-66 166.42,-66 150.84,-66"/>
<polygon fill="#63b8ff" stroke="#63b8ff" points="197.88,-69.5 207.88,-66 197.88,-62.5 197.88,-69.5"/>
</a>
</g>
</g>
<!-- Node6&#45;&gt;Node4 -->
<g id="edge8_Node000006_Node000004" class="edge">
<title>Node6&#45;&gt;Node4</title>
<g id="a_edge8_Node000006_Node000004"><a xlink:title=" ">
<path fill="none" stroke="#63b8ff" d="M198.49,-81.44C185.78,-84.62 172.46,-87.94 160,-91 148.63,-93.79 136.33,-96.77 124.89,-99.52"/>
<polygon fill="#63b8ff" stroke="#63b8ff" points="199.16,-84.88 208.01,-79.05 197.46,-78.09 199.16,-84.88"/>
</a>
</g>
</g>
<!-- Node7 -->
<g id="Node000007" class="node">
<title>Node7</title>
<g id="a_Node000007"><a xlink:href="../../db/dee/namespacemodel.html#aae35f955631a4acd0af47fb50c207ad4" target="_top" xlink:title=" ">
<polygon fill="white" stroke="#666666" points="150.62,-32 9.38,-32 9.38,0 150.62,0 150.62,-32"/>
<text xml:space="preserve" text-anchor="start" x="17.38" y="-18.5" font-family="Helvetica,sans-Serif" font-size="10.00">model.get_recommendations</text>
<text xml:space="preserve" text-anchor="middle" x="80" y="-6.5" font-family="Helvetica,sans-Serif" font-size="10.00">_by_most_common_genre</text>
</a>
</g>
</g>
<!-- Node6&#45;&gt;Node7 -->
<g id="edge6_Node000006_Node000007" class="edge">
<title>Node6&#45;&gt;Node7</title>
<g id="a_edge6_Node000006_Node000007"><a xlink:title=" ">
<path fill="none" stroke="#63b8ff" d="M198.45,-48.88C179.44,-43.55 158.53,-37.7 139.7,-32.43"/>
<polygon fill="#63b8ff" stroke="#63b8ff" points="197.36,-52.21 207.94,-51.53 199.25,-45.47 197.36,-52.21"/>
</a>
</g>
</g>
</g>
</svg>
