<?xml version="1.0" encoding="UTF-8" standalone="no"?>
<!DOCTYPE svg PUBLIC "-//W3C//DTD SVG 1.1//EN"
 "http://www.w3.org/Graphics/SVG/1.1/DTD/svg11.dtd">
<!-- Generated by graphviz version 14.0.5 (20251129.0259)
 -->
<!-- Title: model.get_top_recommendations Pages: 1 -->
<svg width="608pt" height="112pt"
 viewBox="0.00 0.00 608.00 112.00" xmlns="http://www.w3.org/2000/svg" xmlns:xlink="http://www.w3.org/1999/xlink">
<g id="graph0" class="graph" transform="scale(1 1) rotate(0) translate(4 108)">
<title>model.get_top_recommendations</title>
<!-- Node1 -->
<g id="Node000001" class="node">
<title>Node1</title>
<g id="a_Node000001"><a xlink:title=" ">
<polygon fill="#999999" stroke="#666666" points="160,-61 0,-61 0,-41 160,-41 160,-61"/>
<text xml:space="preserve" text-anchor="middle" x="80" y="-47.5" font-family="Helvetica,sans-Serif" font-size="10.00">model.get_top_recommendations</text>
</a>
</g>
</g>
<!-- Node2 -->
<g id="Node000002" class="node">
<title>Node2</title>
<g id="a_Node000002"><a xlink:href="../../db/dee/namespacemodel.html#a3f3c6f856f4b587d404194ce557612b9" target="_top" xlink:title=" ">
<polygon fill="white" stroke="#666666" points="297.5,-67 196,-67 196,-35 297.5,-35 297.5,-67"/>
<text xml:space="preserve" text-anchor="start" x="204" y="-53.5" font-family="Helvetica,sans-Serif" font-size="10.00">model.create_spark</text>
<text xml:space="preserve" text-anchor="middle" x="246.75" y="-41.5" font-family="Helvetica,sans-Serif" font-size="10.00">_and_load_data</text>
</a>
</g>
</g>
<!-- Node1&#45;&gt;Node2 -->
<g id="edge1_Node000001_Node000002" class="edge">
<title>Node1&#45;&gt;Node2</title>
<g id="a_edge1_Node000001_Node000002"><a xlink:title=" ">
<path fill="none" stroke="#63b8ff" d="M160.48,-51C168.55,-51 176.66,-51 184.5,-51"/>
<polygon fill="#63b8ff" stroke="#63b8ff" points="184.23,-54.5 194.23,-51 184.23,-47.5 184.23,-54.5"/>
</a>
</g>
</g>
<!-- Node5 -->
<g id="Node000005" class="node">
<title>Node5</title>
<g id="a_Node000005"><a xlink:href="../../db/dee/namespacemodel.html#ab4b65039e0d99a2d9cee6e1bb38f5728" target="_top" xlink:title=" ">
<polygon fill="white" stroke="#666666" points="599.12,-104 499.88,-104 499.88,-72 599.12,-72 599.12,-104"/>
<text xml:space="preserve" text-anchor="start" x="507.88" y="-90.5" font-family="Helvetica,sans-Serif" font-size="10.00">model.extract_cast</text>
<text xml:space="preserve" text-anchor="middle" x="549.5" y="-78.5" font-family="Helvetica,sans-Serif" font-size="10.00">_names</text>
</a>
</g>
</g>
<!-- Node1&#45;&gt;Node5 -->
<g id="edge5_Node000001_Node000005" class="edge">
<title>Node1&#45;&gt;Node5</title>
<g id="a_edge5_Node000001_Node000005"><a xlink:title=" ">
<path fill="none" stroke="#63b8ff" d="M120.61,-61.46C142.64,-66.81 170.66,-72.84 196,-76 298.02,-88.72 417.85,-89.92 488.24,-89.23"/>
<polygon fill="#63b8ff" stroke="#63b8ff" points="488.06,-92.74 498.01,-89.12 487.97,-85.74 488.06,-92.74"/>
</a>
</g>
</g>
<!-- Node6 -->
<g id="Node000006" class="node">
<title>Node6</title>
<g id="a_Node000006"><a xlink:href="../../db/dee/namespacemodel.html#a9f08323d5e43c2ca0f8ea63fb080305e" target="_top" xlink:title=" ">
<polygon fill="white" stroke="#666666" points="462.75,-20 333.5,-20 333.5,0 462.75,0 462.75,-20"/>
<text xml:space="preserve" text-anchor="middle" x="398.12" y="-6.5" font-family="Helvetica,sans-Serif" font-size="10.00">model.franchise_similarity</text>
</a>
</g>
</g>
<!-- Node1&#45;&gt;Node6 -->
<g id="edge6_Node000001_Node000006" class="edge">
<title>Node1&#45;&gt;Node6</title>
<g id="a_edge6_Node000001_Node000006"><a xlink:title=" ">
<path fill="none" stroke="#63b8ff" d="M122.54,-40.55C144.29,-35.44 171.44,-29.63 196,-26 237.29,-19.9 283.73,-16.01 321.57,-13.6"/>
<polygon fill="#63b8ff" stroke="#63b8ff" points="321.74,-17.09 331.51,-12.99 321.31,-10.11 321.74,-17.09"/>
</a>
</g>
</g>
<!-- Node3 -->
<g id="Node000003" class="node">
<title>Node3</title>
<g id="a_Node000003"><a xlink:href="../../db/dee/namespacemodel.html#ab76add272889a3e6ca4f5616f36f414a" target="_top" xlink:title=" ">
<polygon fill="white" stroke="#666666" points="440.62,-61 355.62,-61 355.62,-41 440.62,-41 440.62,-61"/>
<text xml:space="preserve" text-anchor="middle" x="398.12" y="-47.5" font-family="Helvetica,sans-Serif" font-size="10.00">model.read_csv</text>
</a>
</g>
</g>
<!-- Node2&#45;&gt;Node3 -->
<g id="edge2_Node000002_Node000003" class="edge">
<title>Node2&#45;&gt;Node3</title>
<g id="a_edge2_Node000002_Node000003"><a xlink:title=" ">
<path fill="none" stroke="#63b8ff" d="M297.91,-51C312.76,-51 329.08,-51 344.11,-51"/>
<polygon fill="#63b8ff" stroke="#63b8ff" points="343.8,-54.5 353.8,-51 343.8,-47.5 343.8,-54.5"/>
</a>
</g>
</g>
<!-- Node4 -->
<g id="Node000004" class="node">
<title>Node4</title>
<g id="a_Node000004"><a xlink:href="../../db/dee/namespacemodel.html#a58d81c4b15c700d2acacf1161984d941" target="_top" xlink:title=" ">
<polygon fill="white" stroke="#666666" points="600.25,-45 498.75,-45 498.75,-13 600.25,-13 600.25,-45"/>
<text xml:space="preserve" text-anchor="start" x="506.75" y="-31.5" font-family="Helvetica,sans-Serif" font-size="10.00">model.extract_base</text>
<text xml:space="preserve" text-anchor="middle" x="549.5" y="-19.5" font-family="Helvetica,sans-Serif" font-size="10.00">_title</text>
</a>
</g>
</g>
<!-- Node3&#45;&gt;Node4 -->
<g id="edge3_Node000003_Node000004" class="edge">
<title>Node3&#45;&gt;Node4</title>
<g id="a_edge3_Node000003_Node000004"><a xlink:title=" ">
<path fill="none" stroke="#63b8ff" d="M440.73,-44.87C455.11,-42.75 471.54,-40.33 487.17,-38.03"/>
<polygon fill="#63b8ff" stroke="#63b8ff" points="487.48,-41.53 496.86,-36.61 486.46,-34.6 487.48,-41.53"/>
</a>
</g>
</g>
<!-- Node3&#45;&gt;Node5 -->
<g id="edge4_Node000003_Node000005" class="edge">
<title>Node3&#45;&gt;Node5</title>
<g id="a_edge4_Node000003_Node000005"><a xlink:title=" ">
<path fill="none" stroke="#63b8ff" d="M440.73,-61.31C455.53,-64.97 472.5,-69.18 488.53,-73.15"/>
<polygon fill="#63b8ff" stroke="#63b8ff" points="487.42,-76.48 497.97,-75.48 489.11,-69.68 487.42,-76.48"/>
</a>
</g>
</g>
<!-- Node6&#45;&gt;Node4 -->
<g id="edge7_Node000006_Node000004" class="edge">
<title>Node6&#45;&gt;Node4</title>
<g id="a_edge7_Node000006_Node000004"><a xlink:title=" ">
<path fill="none" stroke="#63b8ff" d="M462.91,-18.11C470.99,-19.14 479.25,-20.19 487.29,-21.21"/>
<polygon fill="#63b8ff" stroke="#63b8ff" points="486.62,-24.66 496.98,-22.45 487.5,-17.71 486.62,-24.66"/>
</a>
</g>
</g>
</g>
</svg>
