<?xml version="1.0" encoding="UTF-8" standalone="no"?>
<!DOCTYPE svg PUBLIC "-//W3C//DTD SVG 1.1//EN"
 "http://www.w3.org/Graphics/SVG/1.1/DTD/svg11.dtd">
<!-- Generated by graphviz version 14.0.5 (20251129.0259)
 -->
<!-- Title: app.login Pages: 1 -->
<svg width="344pt" height="28pt"
 viewBox="0.00 0.00 344.00 28.00" xmlns="http://www.w3.org/2000/svg" xmlns:xlink="http://www.w3.org/1999/xlink">
<g id="graph0" class="graph" transform="scale(1 1) rotate(0) translate(4 24)">
<title>app.login</title>
<!-- Node1 -->
<g id="Node000001" class="node">
<title>Node1</title>
<g id="a_Node000001"><a xlink:title=" ">
<polygon fill="#999999" stroke="#666666" points="55,-20 0,-20 0,0 55,0 55,-20"/>
<text xml:space="preserve" text-anchor="middle" x="27.5" y="-6.5" font-family="Helvetica,sans-Serif" font-size="10.00">app.login</text>
</a>
</g>
</g>
<!-- Node2 -->
<g id="Node000002" class="node">
<title>Node2</title>
<g id="a_Node000002"><a xlink:href="../../d8/d01/namespaceapp.html#a023708f0a4f908c4d1d082e8297adaa4" target="_top" xlink:title=" ">
<polygon fill="white" stroke="#666666" points="197,-20 91,-20 91,0 197,0 197,-20"/>
<text xml:space="preserve" text-anchor="middle" x="144" y="-6.5" font-family="Helvetica,sans-Serif" font-size="10.00">app.verify_password</text>
</a>
</g>
</g>
<!-- Node1&#45;&gt;Node2 -->
<g id="edge1_Node000001_Node000002" class="edge">
<title>Node1&#45;&gt;Node2</title>
<g id="a_edge1_Node000001_Node000002"><a xlink:title=" ">
<path fill="none" stroke="#63b8ff" d="M55.35,-10C62.62,-10 70.81,-10 79.19,-10"/>
<polygon fill="#63b8ff" stroke="#63b8ff" points="79.16,-13.5 89.16,-10 79.16,-6.5 79.16,-13.5"/>
</a>
</g>
</g>
<!-- Node3 -->
<g id="Node000003" class="node">
<title>Node3</title>
<g id="a_Node000003"><a xlink:href="../../d8/d01/namespaceapp.html#a29ea904dfc0696a0dc49e4eefed30cb4" target="_top" xlink:title=" ">
<polygon fill="white" stroke="#666666" points="336,-20 233,-20 233,0 336,0 336,-20"/>
<text xml:space="preserve" text-anchor="middle" x="284.5" y="-6.5" font-family="Helvetica,sans-Serif" font-size="10.00">app.hash_password</text>
</a>
</g>
</g>
<!-- Node2&#45;&gt;Node3 -->
<g id="edge2_Node000002_Node000003" class="edge">
<title>Node2&#45;&gt;Node3</title>
<g id="a_edge2_Node000002_Node000003"><a xlink:title=" ">
<path fill="none" stroke="#63b8ff" d="M197.36,-10C205.27,-10 213.5,-10 221.59,-10"/>
<polygon fill="#63b8ff" stroke="#63b8ff" points="221.38,-13.5 231.38,-10 221.38,-6.5 221.38,-13.5"/>
</a>
</g>
</g>
</g>
</svg>
